<svg id="Layer_1" data-name="Layer 1" xmlns="http://www.w3.org/2000/svg" xmlns:xlink="http://www.w3.org/1999/xlink" viewBox="0 0 1920 1080"><defs><style>.cls-1{fill:none;}.cls-2{fill:url(#linear-gradient);}.cls-3{opacity:0.43;}.cls-4{clip-path:url(#clip-path);}.cls-5{fill:url(#linear-gradient-2);}.cls-6{fill:#fff;}</style><linearGradient id="linear-gradient" x1="1655.189" y1="1183.82" x2="437.067" y2="55.707" gradientUnits="userSpaceOnUse"><stop offset="0" stop-color="#94ccfb"/><stop offset="1" stop-color="#fff"/></linearGradient><clipPath id="clip-path"><rect class="cls-1" width="1920" height="1080"/></clipPath><linearGradient id="linear-gradient-2" x1="285.065" y1="68.642" x2="2009.065" y2="1272.642" gradientUnits="userSpaceOnUse"><stop offset="0" stop-color="#bcdefb"/><stop offset="1" stop-color="#94ccfb"/></linearGradient></defs><title>Artwork_I01_V001</title><rect class="cls-2" width="1920" height="1080"/><g class="cls-3"><g class="cls-4"><rect class="cls-5" width="1920" height="1080"/><path class="cls-6" d="M1399,331.5v-73a29.5,29.5,0,0,0-29.5-29.5h-232a29.5,29.5,0,0,1-29.5-29.5v-43a29.5,29.5,0,0,0-29.5-29.5h-808A29.5,29.5,0,0,0,241,156.5v73A29.5,29.5,0,0,0,270.5,259h232A29.5,29.5,0,0,1,532,288.5v43A29.5,29.5,0,0,0,561.5,361h808A29.5,29.5,0,0,0,1399,331.5Z"/><path class="cls-6" d="M1280.077,956.9V926.949a12.1,12.1,0,0,0-12.1-12.1H1172.8a12.1,12.1,0,0,1-12.1-12.1V885.1a12.1,12.1,0,0,0-12.1-12.1H817.1A12.1,12.1,0,0,0,805,885.1v29.948a12.1,12.1,0,0,0,12.1,12.1h95.179a12.1,12.1,0,0,1,12.1,12.1V956.9a12.1,12.1,0,0,0,12.1,12.1h331.487A12.1,12.1,0,0,0,1280.077,956.9Z"/><path class="cls-6" d="M2219,637H1866a24,24,0,0,0-24,24v36a24,24,0,0,1-24,24H1602a24,24,0,0,1-24-24V631a24,24,0,0,0-24-24H1372a24,24,0,0,1-24-24h0a24,24,0,0,1,24-24h182a24,24,0,0,0,24-24V451a24,24,0,0,0-24-24H1201a24,24,0,0,0-24,24v48a24,24,0,0,1-24,24H879a24,24,0,0,0-24,24v36a24,24,0,0,1-24,24H713a24,24,0,0,0-24,24v84a24,24,0,0,0,24,24h583a24,24,0,0,1,24,24v66a24,24,0,0,0,24,24h701a24,24,0,0,0,24-24V793a24,24,0,0,1,24-24h126a24,24,0,0,0,24-24V661A24,24,0,0,0,2219,637Z"/><path class="cls-6" d="M1932.557,288.84v-30.5A20.336,20.336,0,0,1,1952.893,238h189.8a20.336,20.336,0,0,1,20.336,20.336v30.5a20.335,20.335,0,0,0,20.335,20.336h4.519a20.335,20.335,0,0,1,20.336,20.335v36.153A20.336,20.336,0,0,1,2187.885,386H1791.336A20.336,20.336,0,0,1,1771,365.664V329.511a20.335,20.335,0,0,1,20.336-20.335h120.885A20.336,20.336,0,0,0,1932.557,288.84Z"/><path class="cls-6" d="M256.2,404.444V366.91a25.024,25.024,0,0,0-25.023-25.024H-2.37A25.024,25.024,0,0,0-27.393,366.91v37.534a25.024,25.024,0,0,1-25.023,25.024h-5.561A25.023,25.023,0,0,0-83,454.491v44.486A25.023,25.023,0,0,0-57.977,524H429.977A25.023,25.023,0,0,0,455,498.977V454.491a25.023,25.023,0,0,0-25.023-25.023H281.227A25.024,25.024,0,0,1,256.2,404.444Z"/><path class="cls-6" d="M20.234,154H-278.56a36.766,36.766,0,0,0-36.765,36.766V192a36.766,36.766,0,0,1-36.766,36.766H-837.8a36.766,36.766,0,0,0-36.765,36.766V317.6A36.766,36.766,0,0,0-837.8,354.368h49.83A36.766,36.766,0,0,1-751.2,391.134v43.1A36.766,36.766,0,0,0-714.435,471h298.794a36.766,36.766,0,0,0,36.766-36.766v-43.1a36.766,36.766,0,0,1,36.766-36.766h157.49A36.766,36.766,0,0,0-147.854,317.6v-1.233A36.766,36.766,0,0,1-111.088,279.6H20.234A36.766,36.766,0,0,0,57,242.838V190.766A36.766,36.766,0,0,0,20.234,154Z"/></g></g></svg>