<?xml version="1.0" encoding="utf-8"?>
<!-- Generator: Adobe Illustrator 22.0.1, SVG Export Plug-In . SVG Version: 6.00 Build 0)  -->
<svg version="1.1" id="Layer_1" xmlns="http://www.w3.org/2000/svg" xmlns:xlink="http://www.w3.org/1999/xlink" x="0px" y="0px"
	 viewBox="0 0 700 700" style="enable-background:new 0 0 700 700;" xml:space="preserve">
<style type="text/css">
	.st0{fill:#596E81;}
	.st1{fill:#FFFFFF;}
</style>
<g>
	<g>
		<path class="st0" d="M295.4,596.6c-2,0-4.2-0.5-6.1-1.7l-158.6-91.5c-8-4.6-12.9-13-12.9-22.4V321.4c0-9.3,4.7-17.6,12.9-22.4
			c8.1-4.6,17.6-4.6,25.8,0l145.1,83.7c5.9,3.4,7.8,10.8,4.4,16.8s-10.8,7.8-16.8,4.4L144,320.2c-0.2-0.2-0.7-0.3-1.2,0
			c-0.7,0.3-0.7,0.8-0.7,1v159.6c0,0.5,0.2,0.8,0.7,1l158.6,91.5c5.9,3.4,7.8,10.8,4.4,16.8C303.9,594.4,299.6,596.6,295.4,596.6z"
			/>
	</g>
	<g>
		<path class="st0" d="M313.4,664.9c-8.5,0-16.9-2.2-24.7-6.8L87.4,542c-15.3-8.8-24.7-25.3-24.7-42.9V224.1
			c0-17.6,9.5-34.1,24.7-42.9L325.9,43.6c15.3-8.8,34.2-8.8,49.5,0l238.3,137.6c15.3,8.8,24.7,25.3,24.7,42.9v275.2
			c0,17.6-9.5,34.1-24.7,42.9l-146.8,84.7c-5.9,3.4-13.4,1.4-16.8-4.4c-3.4-5.9-1.4-13.4,4.4-16.8L601.3,521
			c7.6-4.4,12.5-12.7,12.5-21.5V224.1c0-8.8-4.7-17.1-12.5-21.5L363,65c-7.6-4.4-17.3-4.4-24.9,0L99.8,202.6
			c-7.6,4.4-12.5,12.7-12.5,21.5v275.2c0,8.8,4.7,17.1,12.5,21.5L301,636.9c7.8,4.6,17.1,4.6,24.9,0c7.8-4.6,12.5-12.5,12.5-21.5
			V361.7c0-6.8,5.4-12.2,12.2-12.2c6.8,0,12.2,5.4,12.2,12.2v253.7c0,17.8-9.3,33.9-24.7,42.9C330.3,662.7,321.8,664.9,313.4,664.9z
			"/>
	</g>
	<g>
		<path class="st0" d="M212.9,418.1c-3.4,0-6.1-2.7-6.1-6.1v-7.8c0-3.4,2.7-6.1,6.1-6.1s6.1,2.7,6.1,6.1v7.8
			C219,415.4,216.2,418.1,212.9,418.1z"/>
	</g>
	<g>
		<path class="st0" d="M212.9,484.2c-3.4,0-6.1-2.7-6.1-6.1v-16.4c0-3.4,2.7-6.1,6.1-6.1s6.1,2.7,6.1,6.1v16.4
			C219,481.5,216.2,484.2,212.9,484.2z"/>
	</g>
	<g>
		<path class="st0" d="M243.9,465.3c-1,0-2-0.3-3.1-0.8l-5.8-3.4c-2.9-1.7-3.9-5.4-2.2-8.3c1.7-2.9,5.4-3.9,8.3-2.2l5.8,3.4
			c2.9,1.7,3.9,5.4,2.2,8.3C248.1,464.2,246.1,465.3,243.9,465.3z"/>
	</g>
	<g>
		<path class="st0" d="M194.9,437c-1,0-2-0.3-3.1-0.8l-13.2-7.6c-2.9-1.7-3.9-5.4-2.2-8.3c1.7-2.9,5.4-3.9,8.3-2.2l13.2,7.6
			c2.9,1.7,3.9,5.4,2.2,8.3C199.1,435.9,197.1,437,194.9,437z"/>
	</g>
	<g>
		<g>
			<ellipse transform="matrix(0.866 -0.5 0.5 0.866 -192.0662 165.5359)" class="st1" cx="212.9" cy="441.2" rx="14.6" ry="25.3"/>
			<path class="st0" d="M220.8,465.1c-2.5,0-5.4-0.8-8.3-2.5c-10.2-5.8-18.3-20-18.3-31.7c0-5.8,2-10.2,5.8-12.2
				c3.7-2,8.5-1.7,13.6,1.2c10.2,5.8,18.3,20,18.3,31.7c0,5.8-2,10.2-5.6,12.2C224.4,464.6,222.7,465.1,220.8,465.1z M204.9,419
				c-1.5,0-3.1,0.3-4.2,1c-3.1,1.9-4.9,5.6-4.9,10.8c0,11.2,7.8,24.7,17.5,30.2c4.4,2.5,8.6,3.1,11.9,1.2c3.1-1.9,4.7-5.6,4.7-10.8
				c0-11.2-7.8-24.7-17.5-30.2C209.8,419.7,207.3,419,204.9,419z"/>
		</g>
		<g>
			<path class="st0" d="M220.8,470.3c-3.6,0-7.3-1-11-3.2c-11.7-6.8-21-22.7-21-36.3c0-7.6,3.1-13.7,8.3-16.8s12.2-2.5,18.8,1.2
				c11.7,6.8,21,22.7,21,36.3c0,7.6-3.1,13.7-8.3,16.8C226.2,469.7,223.5,470.3,220.8,470.3z M204.9,424.2c-0.7,0-1.2,0.2-1.7,0.3
				c-1.4,0.8-2.2,3.1-2.2,6.3c0,9.2,6.9,21.2,14.7,25.6c2.7,1.5,5.1,2,6.4,1.2c1.4-0.8,2.2-3.1,2.2-6.3c0-9.2-6.9-21.2-14.7-25.6
				C207.9,424.8,206.2,424.2,204.9,424.2z"/>
		</g>
	</g>
	<g>
		<g>
			<path class="st1" d="M227.4,412c9.8,5.8,18,19.7,18,31"/>
			<path class="st0" d="M246.2,443.1h-1.7c0-11.2-7.8-24.7-17.5-30.2l0.8-1.5C237.9,417.1,246.2,431.4,246.2,443.1z"/>
		</g>
		<g>
			<path class="st0" d="M240.1,460.7c-2,0-4.2-1-5.3-3.1c-1.7-2.9-0.7-6.6,2.2-8.3c1.4-0.8,2.2-3.1,2.2-6.3
				c0-9.2-6.9-21.2-14.7-25.6c-2.7-1.5-5.1-2-6.4-1.2c-2.9,1.7-6.6,0.7-8.3-2.2c-1.7-2.9-0.7-6.6,2.2-8.3c5.3-3.1,12.2-2.5,18.8,1.2
				c11.7,6.8,21,22.7,21,36.3c0,7.6-3.1,13.7-8.3,16.8C242.2,460.5,241.2,460.7,240.1,460.7z"/>
		</g>
	</g>
	<g>
		<path class="st0" d="M200.5,425.3c-2,0-4.2-1-5.3-3.1c-1.7-2.9-0.7-6.6,2.2-8.3l14.2-8.3c2.9-1.7,6.6-0.7,8.3,2.2
			c1.7,2.9,0.7,6.6-2.2,8.3l-14.2,8.3C202.7,424.9,201.7,425.3,200.5,425.3z"/>
	</g>
	<g>
		<path class="st0" d="M225.9,469c-2,0-4.2-1-5.3-3.1c-1.7-2.9-0.7-6.6,2.2-8.3l14.2-8.3c2.9-1.7,6.6-0.7,8.3,2.2
			c1.7,2.9,0.7,6.6-2.2,8.3l-14.2,8.3C227.9,468.6,226.9,469,225.9,469z"/>
	</g>
</g>
</svg>
